<?xml version="1.0" encoding="UTF-8" standalone="no"?><!-- Generator: Gravit.io --><svg xmlns="http://www.w3.org/2000/svg" xmlns:xlink="http://www.w3.org/1999/xlink" style="isolation:isolate" viewBox="0 0 1024 374" width="1024pt" height="374pt"><defs><clipPath id="_clipPath_lbPDbAi4r1Ccalxql8wRvkq2XDW8vjDX"><rect width="1024" height="374"/></clipPath></defs><g clip-path="url(#_clipPath_lbPDbAi4r1Ccalxql8wRvkq2XDW8vjDX)"><path d=" M 76.905 315.523 L 76.905 315.523 L 76.905 264.428 L 76.905 264.428 Q 76.905 242.304 70.848 229.662 L 70.848 229.662 L 70.848 229.662 Q 64.79 217.021 43.193 193.317 L 43.193 193.317 L 43.193 193.317 Q 16.329 163.292 8.165 145.646 L 8.165 145.646 L 8.165 145.646 Q 0 128 0 95.868 L 0 95.868 L 0 53.202 L 0 53.202 Q 0 22.124 9.745 11.062 L 9.745 11.062 L 9.745 11.062 Q 19.49 0 47.934 0 L 47.934 0 L 64.79 0 L 64.79 0 Q 93.235 0 102.979 11.062 L 102.979 11.062 L 102.979 11.062 Q 112.724 22.124 112.724 53.202 L 112.724 53.202 L 112.724 131.161 L 79.012 131.161 L 79.012 58.469 L 79.012 58.469 Q 79.012 43.193 75.852 38.189 L 75.852 38.189 L 75.852 38.189 Q 72.691 33.185 60.576 33.185 L 60.576 33.185 L 54.255 33.185 L 54.255 33.185 Q 42.14 33.185 38.98 38.189 L 38.98 38.189 L 38.98 38.189 Q 35.819 43.193 35.819 57.942 L 35.819 57.942 L 35.819 97.449 L 35.819 97.449 Q 35.819 120.099 41.877 132.741 L 41.877 132.741 L 41.877 132.741 Q 47.934 145.383 69.531 169.086 L 69.531 169.086 L 69.531 169.086 Q 96.395 199.638 104.56 217.021 L 104.56 217.021 L 104.56 217.021 Q 112.724 234.403 112.724 266.008 L 112.724 266.008 L 112.724 320.79 L 112.724 320.79 Q 112.724 351.868 102.979 362.93 L 102.979 362.93 L 102.979 362.93 Q 93.235 373.992 64.79 373.992 L 64.79 373.992 L 47.934 373.992 L 47.934 373.992 Q 19.49 373.992 9.745 362.93 L 9.745 362.93 L 9.745 362.93 Q 0 351.868 0 320.79 L 0 320.79 L 0 230.189 L 33.712 230.189 L 33.712 315.523 L 33.712 315.523 Q 33.712 330.798 36.872 335.802 L 36.872 335.802 L 36.872 335.802 Q 40.033 340.807 52.148 340.807 L 52.148 340.807 L 58.469 340.807 L 58.469 340.807 Q 70.584 340.807 73.745 335.802 L 73.745 335.802 L 73.745 335.802 Q 76.905 330.798 76.905 315.523 Z  M 176.988 195.424 L 176.988 371.358 L 141.169 371.358 L 141.169 2.634 L 176.988 2.634 L 176.988 161.712 L 222.288 161.712 L 222.288 2.634 L 258.107 2.634 L 258.107 371.358 L 222.288 371.358 L 222.288 195.424 L 176.988 195.424 Z  M 379.259 35.819 L 326.058 35.819 L 326.058 161.712 L 370.831 161.712 L 370.831 195.424 L 326.058 195.424 L 326.058 338.173 L 379.259 338.173 L 379.259 371.358 L 290.239 371.358 L 290.239 2.634 L 379.259 2.634 L 379.259 35.819 Z  M 439.835 371.358 L 404.017 371.358 L 404.017 2.634 L 439.835 2.634 L 439.835 170.14 L 439.835 170.14 Q 442.469 158.025 448.263 140.642 L 448.263 140.642 L 495.671 2.634 L 530.436 2.634 L 468.807 175.934 L 532.017 371.358 L 494.617 371.358 L 447.737 221.761 L 447.737 221.761 Q 443.523 207.539 439.835 191.21 L 439.835 191.21 L 439.835 371.358 Z  M 585.745 371.358 L 549.926 371.358 L 549.926 2.634 L 585.745 2.634 L 585.745 371.358 Z  M 737.449 371.358 L 697.415 371.358 L 657.383 149.597 L 657.383 149.597 Q 654.222 132.214 647.901 81.119 L 647.901 81.119 L 647.901 81.119 Q 648.955 124.313 648.955 149.597 L 648.955 149.597 L 648.955 371.358 L 617.876 371.358 L 617.876 2.634 L 663.704 2.634 L 697.942 198.584 L 697.942 198.584 Q 702.683 223.342 707.424 268.115 L 707.424 268.115 L 707.424 268.115 Q 706.37 218.601 706.37 198.584 L 706.37 198.584 L 706.37 2.634 L 737.449 2.634 L 737.449 371.358 Z  M 884.938 371.358 L 849.119 371.358 L 842.798 314.996 L 796.444 314.996 L 790.65 371.358 L 758.518 371.358 L 796.971 2.634 L 846.486 2.634 L 884.938 371.358 Z  M 805.399 223.868 L 805.399 223.868 L 799.605 281.811 L 839.638 281.811 L 833.844 223.868 L 833.844 223.868 Q 823.835 124.839 819.622 42.14 L 819.622 42.14 L 819.622 42.14 Q 815.407 124.839 805.399 223.868 Z  M 942.881 195.424 L 942.881 371.358 L 907.062 371.358 L 907.062 2.634 L 942.881 2.634 L 942.881 161.712 L 988.181 161.712 L 988.181 2.634 L 1024 2.634 L 1024 371.358 L 988.181 371.358 L 988.181 195.424 L 942.881 195.424 Z " fill="rgb(255,255,255)"/></g></svg>